<?xml version="1.0" encoding="UTF-8"?>
<svg id="Layer_2" data-name="Layer 2" xmlns="http://www.w3.org/2000/svg" viewBox="0 0 88 58">
  <defs>
    <style>
      .cls-1 {
        fill: #fff;
      }

      .cls-2 {
        isolation: isolate;
      }

      .cls-3 {
        fill: #1b3665;
        stroke: #fdd700;
        stroke-width: 2px;
      }

      .cls-4 {
        fill: none;
        stroke: #fff;
      }

      .cls-5 {
        fill: #ffcd05;
      }
    </style>
  </defs>
  <g id="Layer_1-2" data-name="Layer 1">
    <g>
      <rect class="cls-3" x="1" y="1" width="86" height="56" rx="14" ry="14"/>
      <g>
        <g class="cls-2">
          <path class="cls-5" d="M20.56,21.04l-3.01,3.14v5.66h-5.15V7.44h5.15v10.46l9.92-10.46h5.76l-9.28,9.98,9.82,12.42h-6.05l-7.17-8.8Z"/>
          <path class="cls-5" d="M52.66,30.22l-2.69-2.5c-2.05,1.6-4.61,2.5-7.49,2.5-4.93,0-8.54-2.56-8.54-6.14,0-2.82,1.5-4.77,4.93-6.69-1.63-1.7-2.3-3.14-2.3-4.74,0-3.26,2.75-5.5,6.98-5.5,3.87,0,6.43,1.98,6.43,5.15,0,2.3-1.34,4-4.38,5.66l4.1,3.81c.48-.99.86-2.18,1.12-3.49l4,1.25c-.42,1.92-1.09,3.65-2.05,5.09l2.62,2.43-2.72,3.17ZM47.02,25l-5.41-5.06c-2.05,1.18-2.78,2.21-2.78,3.58,0,1.63,1.54,2.78,4,2.78,1.54,0,2.98-.45,4.19-1.31ZM41.1,12.59c0,.86.35,1.5,1.73,2.85,2.21-1.18,2.91-2.02,2.91-3.04,0-1.09-.77-1.86-2.21-1.86-1.54,0-2.43.86-2.43,2.05Z"/>
          <path class="cls-5" d="M56.98,27.63l1.76-3.9c1.89,1.38,4.7,2.34,7.39,2.34,3.07,0,4.32-1.02,4.32-2.4,0-4.19-13.02-1.31-13.02-9.63,0-3.81,3.07-6.98,9.44-6.98,2.82,0,5.7.67,7.78,1.98l-1.6,3.94c-2.08-1.18-4.22-1.76-6.21-1.76-3.07,0-4.26,1.15-4.26,2.56,0,4.13,13.02,1.28,13.02,9.5,0,3.74-3.1,6.94-9.5,6.94-3.55,0-7.14-1.06-9.12-2.59Z"/>
        </g>
        <path class="cls-4" d="M12.4,32.84c21.07,3.33,42.13,3.33,63.2,0"/>
        <g class="cls-2">
          <path class="cls-1" d="M25.5,44.54c0-3.69,2.81-6.41,6.61-6.41,1.84,0,3.49.61,4.61,1.84l-.85.85c-1.03-1.04-2.29-1.49-3.73-1.49-3.04,0-5.33,2.23-5.33,5.22s2.29,5.22,5.33,5.22c1.44,0,2.7-.45,3.73-1.51l.85.85c-1.12,1.22-2.77,1.85-4.63,1.85-3.78,0-6.59-2.72-6.59-6.41Z"/>
          <path class="cls-1" d="M49.43,42.55c0,2.68-1.94,4.3-5.15,4.3h-3.39v3.98h-1.33v-12.6h4.72c3.21,0,5.15,1.62,5.15,4.32ZM48.1,42.55c0-2.02-1.33-3.17-3.85-3.17h-3.35v6.3h3.35c2.52,0,3.85-1.15,3.85-3.13Z"/>
          <path class="cls-1" d="M59.58,47.47h-7.02l-1.51,3.37h-1.39l5.76-12.6h1.31l5.76,12.6h-1.4l-1.51-3.37ZM59.09,46.39l-3.02-6.77-3.03,6.77h6.05Z"/>
        </g>
      </g>
    </g>
  </g>
</svg>